<svg width="110" height="184" viewBox="0 0 110 184" fill="none" xmlns="http://www.w3.org/2000/svg">
<path d="M99.3152 48.8821H10.959C5.28487 48.8821 0.685059 53.4819 0.685059 59.156V172.863C0.685059 178.537 5.28488 183.137 10.959 183.137H99.3152C104.989 183.137 109.589 178.537 109.589 172.863V59.156C109.589 53.4819 104.989 48.8821 99.3152 48.8821Z" fill="url(#paint0_linear)"/>
<path d="M45.9336 161.951V64.7669C45.9336 60.7893 42.7091 57.5648 38.7314 57.5648C34.7538 57.5648 31.5293 60.7893 31.5293 64.7669V161.951C31.5293 165.929 34.7538 169.153 38.7314 169.153C42.7091 169.153 45.9336 165.929 45.9336 161.951Z" fill="url(#paint1_linear)"/>
<path d="M74.7426 161.951V64.7669C74.7426 60.7893 71.5181 57.5648 67.5405 57.5648C63.5629 57.5648 60.3384 60.7893 60.3384 64.7669V161.951C60.3384 165.929 63.5629 169.153 67.5405 169.153C71.5181 169.153 74.7426 165.929 74.7426 161.951Z" fill="url(#paint2_linear)"/>
<path d="M109.574 174.048V57.9713C109.574 52.9515 105.505 48.8821 100.485 48.8821C95.4649 48.8821 91.3955 52.9515 91.3955 57.9713V174.048C91.3955 179.068 95.4649 183.137 100.485 183.137C105.505 183.137 109.574 179.068 109.574 174.048Z" fill="url(#paint3_linear)"/>
<path d="M18.8635 174.048V57.9713C18.8635 52.9515 14.7941 48.8821 9.77429 48.8821C4.75445 48.8821 0.685059 52.9515 0.685059 57.9713V174.048C0.685059 179.068 4.75445 183.137 9.77429 183.137C14.7941 183.137 18.8635 179.068 18.8635 174.048Z" fill="url(#paint4_linear)"/>
<path d="M90.0624 69.9815C93.409 69.9815 96.1219 67.2493 96.1219 63.879C96.1219 60.5087 93.409 57.7765 90.0624 57.7765C86.7159 57.7765 84.0029 60.5087 84.0029 63.879C84.0029 67.2493 86.7159 69.9815 90.0624 69.9815Z" fill="#146DAD"/>
<path d="M20.3783 69.9815C23.7249 69.9815 26.4378 67.2493 26.4378 63.879C26.4378 60.5087 23.7249 57.7765 20.3783 57.7765C17.0318 57.7765 14.3188 60.5087 14.3188 63.879C14.3188 67.2493 17.0318 69.9815 20.3783 69.9815Z" fill="#146DAD"/>
<path d="M94.6068 39.9113C94.6068 18.0033 76.9737 0.260284 55.2353 0.260284C33.4817 0.260284 15.8638 18.0186 15.8638 39.9113V62.7346C15.8638 65.2672 17.8937 67.3115 20.4084 67.3115C22.9231 67.3115 24.953 65.2672 24.953 62.7346V58.1578H24.9378V40.6588C24.9378 24.1363 37.6628 10.0548 54.0537 9.42929C71.2778 8.77327 85.5024 22.7022 85.5024 39.9113V58.1578H85.3964V62.6736C85.3964 65.2367 87.4566 67.3115 90.0016 67.3115C92.5466 67.3115 94.6068 65.2367 94.6068 62.6736V39.9113Z" fill="url(#paint5_linear)"/>
<defs>
<linearGradient id="paint0_linear" x1="0.685059" y1="116.01" x2="109.589" y2="116.01" gradientUnits="userSpaceOnUse">
<stop stop-color="#4551BD"/>
<stop offset="1" stop-color="#58CAEA"/>
</linearGradient>
<linearGradient id="paint1_linear" x1="38.7314" y1="57.5648" x2="38.7314" y2="169.153" gradientUnits="userSpaceOnUse">
<stop stop-color="#CED5F7"/>
<stop offset="1" stop-color="white" stop-opacity="0"/>
</linearGradient>
<linearGradient id="paint2_linear" x1="67.5405" y1="57.5648" x2="67.5405" y2="169.153" gradientUnits="userSpaceOnUse">
<stop stop-color="#CED5F7"/>
<stop offset="1" stop-color="white" stop-opacity="0"/>
</linearGradient>
<linearGradient id="paint3_linear" x1="100.485" y1="48.8821" x2="100.485" y2="183.137" gradientUnits="userSpaceOnUse">
<stop stop-color="#CED5F7"/>
<stop offset="1" stop-color="white" stop-opacity="0"/>
</linearGradient>
<linearGradient id="paint4_linear" x1="9.77429" y1="48.8821" x2="9.77429" y2="183.137" gradientUnits="userSpaceOnUse">
<stop stop-color="#CED5F7"/>
<stop offset="1" stop-color="white" stop-opacity="0"/>
</linearGradient>
<linearGradient id="paint5_linear" x1="15.8638" y1="33.8069" x2="94.5394" y2="33.8069" gradientUnits="userSpaceOnUse">
<stop stop-color="#F71D69"/>
<stop offset="1" stop-color="#F8C648"/>
</linearGradient>
</defs>
</svg>
