<svg width="292" height="280" viewBox="0 0 292 280" fill="none" xmlns="http://www.w3.org/2000/svg">
<g clip-path="url(#clip0)" filter="url(#filter0_d)">
<path d="M63.9906 135.044L145.83 54.8625C146.804 53.902 148.026 53.2258 149.362 52.908L180.026 45.5112C181.295 45.2058 182.622 45.2298 183.879 45.5809C185.136 45.9321 186.28 46.5985 187.201 47.5158L217.449 77.7444C218.361 78.6469 219.026 79.7648 219.38 80.9924C219.734 82.2201 219.766 83.5169 219.473 84.7603L211.964 116.111C211.636 117.461 210.935 118.693 209.94 119.67L129.871 199.26C128.461 200.662 126.549 201.456 124.551 201.467C122.553 201.478 120.631 200.707 119.205 199.32L64.0109 145.719C63.2957 145.023 62.7273 144.193 62.3387 143.277C61.9501 142.362 61.749 141.379 61.7471 140.386C61.7452 139.393 61.9426 138.409 62.3277 137.492C62.7128 136.575 63.2781 135.743 63.9906 135.044Z" fill="url(#paint0_linear)"/>
<path d="M188.688 85.6732C193.724 85.6732 197.806 81.6301 197.806 76.6427C197.806 71.6553 193.724 67.6122 188.688 67.6122C183.652 67.6122 179.57 71.6553 179.57 76.6427C179.57 81.6301 183.652 85.6732 188.688 85.6732Z" fill="white"/>
<path d="M138.169 163.73C143.205 163.73 147.287 159.687 147.287 154.7C147.287 149.712 143.205 145.669 138.169 145.669C133.133 145.669 129.051 149.712 129.051 154.7C129.051 159.687 133.133 163.73 138.169 163.73Z" fill="white"/>
<path d="M138.169 104.496C143.205 104.496 147.287 100.453 147.287 95.4655C147.287 90.4781 143.205 86.435 138.169 86.435C133.133 86.435 129.051 90.4781 129.051 95.4655C129.051 100.453 133.133 104.496 138.169 104.496Z" fill="white"/>
<path d="M179.559 119.57H96.7573V130.024H179.559V119.57Z" fill="white"/>
<path d="M182.494 81.574C182.494 81.574 198.16 70.8096 200.801 86.4952C203.442 102.181 189.76 129.793 200.801 160.012C215.981 201.466 239.824 159.521 225.19 146.912C207.278 131.477 211.022 116.964 211.022 116.964" stroke="#7A5BF5" stroke-width="1.94377" stroke-miterlimit="10"/>
</g>
<defs>
<filter id="filter0_d" x="0.0959091" y="0.0958805" width="291.781" height="279.452" filterUnits="userSpaceOnUse" color-interpolation-filters="sRGB">
<feFlood flood-opacity="0" result="BackgroundImageFix"/>
<feColorMatrix in="SourceAlpha" type="matrix" values="0 0 0 0 0 0 0 0 0 0 0 0 0 0 0 0 0 0 127 0" result="hardAlpha"/>
<feOffset dy="16.4384"/>
<feGaussianBlur stdDeviation="30.8219"/>
<feColorMatrix type="matrix" values="0 0 0 0 0 0 0 0 0 0.120115 0 0 0 0 0.2375 0 0 0 0.4 0"/>
<feBlend mode="normal" in2="BackgroundImageFix" result="effect1_dropShadow"/>
<feBlend mode="normal" in="SourceGraphic" in2="effect1_dropShadow" result="shape"/>
</filter>
<linearGradient id="paint0_linear" x1="61.744" y1="123.388" x2="219.645" y2="123.388" gradientUnits="userSpaceOnUse">
<stop stop-color="#4B45BD"/>
<stop offset="1" stop-color="#58CAEA"/>
</linearGradient>
<clipPath id="clip0">
<rect width="168.493" height="156.164" fill="white" transform="translate(61.7397 45.3014)"/>
</clipPath>
</defs>
</svg>
