<svg width="151" height="147" viewBox="0 0 151 147" fill="none" xmlns="http://www.w3.org/2000/svg">
<g filter="url(#filter0_d)">
<path d="M77.1594 115.192C103.801 115.192 125.398 93.5727 125.398 66.9043C125.398 40.2359 103.801 18.6169 77.1594 18.6169C50.5177 18.6169 28.9204 40.2359 28.9204 66.9043C28.9204 93.5727 50.5177 115.192 77.1594 115.192Z" fill="#E2810E"/>
<path d="M72.9513 115.191C99.593 115.191 121.19 93.5722 121.19 66.9038C121.19 40.2354 99.593 18.6164 72.9513 18.6164C46.3097 18.6164 24.7124 40.2354 24.7124 66.9038C24.7124 93.5722 46.3097 115.191 72.9513 115.191Z" fill="url(#paint0_linear)"/>
<path d="M73.145 112.007C62.933 112.007 53.0369 108.462 45.143 101.977C37.249 95.4924 31.8456 86.4681 29.8535 76.4422C27.8613 66.4164 29.4037 56.0092 34.2178 46.9941C39.0318 37.9789 46.8198 30.9136 56.2545 27.0019C65.6893 23.0903 76.1872 22.5743 85.9593 25.542C95.7315 28.5097 104.173 34.7774 109.847 43.2771C115.52 51.7768 118.073 61.9827 117.072 72.1557C116.07 82.3287 111.576 91.8394 104.355 99.0673C100.266 103.183 95.4019 106.445 90.0448 108.667C84.6876 110.888 78.9435 112.023 73.145 112.007ZM73.145 26.2774C64.9355 26.2774 56.9105 28.7143 50.0846 33.2799C43.2587 37.8455 37.9386 44.3347 34.7972 51.9269C31.6557 59.5191 30.8339 67.8734 32.4357 75.9332C34.0376 83.9929 37.9911 91.3962 43.7962 97.2067C49.6014 103.017 56.9976 106.974 65.0494 108.577C73.1012 110.18 81.447 109.357 89.0313 106.211C96.6157 103.066 103.098 97.7401 107.658 90.9071C112.219 84.074 114.653 76.0406 114.652 67.8229C114.64 56.8075 110.263 46.2468 102.481 38.4581C94.6998 30.6693 84.1493 26.2887 73.145 26.2774Z" fill="#FFA412"/>
<path d="M70.0331 71.2554L76.8436 69.1794L75.8868 66.0341L69.0763 68.1101L67.7273 63.6758L74.5378 61.5998L74.0986 60.156C72.645 55.378 69.5633 53.7068 64.8536 55.1425C62.414 55.8861 60.8547 57.1502 60.1758 58.9348C59.4864 60.685 59.628 63.1585 60.6005 66.3554L53.4343 68.5399C52.0435 63.9681 52.1209 59.9629 53.6666 56.5243C55.2122 53.0857 58.3908 50.633 63.2022 49.1664C67.7764 47.772 71.6428 47.9457 74.8014 49.6873C77.96 51.4289 80.1668 54.3622 81.4217 58.4872L81.704 59.4153L88.5145 57.3392L89.8635 61.7735L83.053 63.8496L84.0099 66.9949L90.8204 64.9188L92.1851 69.4047L85.3746 71.4807L88.6373 82.2056L81.471 84.3901L78.2083 73.6652L71.3978 75.7413L70.0331 71.2554Z" fill="#F9BA4B"/>
</g>
<defs>
<filter id="filter0_d" x="0.0548668" y="0.534247" width="150.001" height="145.89" filterUnits="userSpaceOnUse" color-interpolation-filters="sRGB">
<feFlood flood-opacity="0" result="BackgroundImageFix"/>
<feColorMatrix in="SourceAlpha" type="matrix" values="0 0 0 0 0 0 0 0 0 0 0 0 0 0 0 0 0 0 127 0" result="hardAlpha"/>
<feOffset dy="6.57534"/>
<feGaussianBlur stdDeviation="12.3288"/>
<feColorMatrix type="matrix" values="0 0 0 0 0 0 0 0 0 0.120115 0 0 0 0 0.2375 0 0 0 0.4 0"/>
<feBlend mode="normal" in2="BackgroundImageFix" result="effect1_dropShadow"/>
<feBlend mode="normal" in="SourceGraphic" in2="effect1_dropShadow" result="shape"/>
</filter>
<linearGradient id="paint0_linear" x1="24.7124" y1="66.9341" x2="121.108" y2="66.9341" gradientUnits="userSpaceOnUse">
<stop stop-color="#F71D69"/>
<stop offset="1" stop-color="#F8C648"/>
</linearGradient>
</defs>
</svg>
