<svg width="15" height="15" viewBox="0 0 15 15" fill="none" xmlns="http://www.w3.org/2000/svg">
<path d="M1.35969 2.6785H4.02241H4.07567C4.28869 3.58921 5.14076 4.28563 6.15259 4.28563C7.16443 4.28563 7.96324 3.58921 8.22952 2.6785H8.28277H14.1408C14.4603 2.6785 14.6733 2.46421 14.6733 2.14279C14.6733 1.82136 14.4603 1.60707 14.1408 1.60707H8.28277H8.22952C8.0165 0.696364 7.16443 -6.10352e-05 6.15259 -6.10352e-05C5.14076 -6.10352e-05 4.34194 0.696364 4.07567 1.60707H4.02241H1.35969C1.04017 1.60707 0.827148 1.82136 0.827148 2.14279C0.827148 2.46421 1.04017 2.6785 1.35969 2.6785ZM6.15259 1.07136C6.73839 1.07136 7.21768 1.5535 7.21768 2.14279C7.21768 2.73207 6.73839 3.21421 6.15259 3.21421C5.56679 3.21421 5.0875 2.73207 5.0875 2.14279C5.0875 1.5535 5.56679 1.07136 6.15259 1.07136Z" fill="#0063BD"/>
<path d="M1.35969 8.03561H7.75023H7.80348C8.0165 8.94632 8.86857 9.64275 9.8804 9.64275C10.8922 9.64275 11.6911 8.94632 11.9573 8.03561H12.0106H14.1408C14.4603 8.03561 14.6733 7.82133 14.6733 7.4999C14.6733 7.17848 14.4603 6.96419 14.1408 6.96419H12.0106H11.9573C11.7443 6.05348 10.8922 5.35706 9.8804 5.35706C8.86857 5.35706 8.06975 6.05348 7.80348 6.96419H7.75023H1.35969C1.04017 6.96419 0.827148 7.17848 0.827148 7.4999C0.827148 7.82133 1.04017 8.03561 1.35969 8.03561ZM9.8804 6.42848C10.4662 6.42848 10.9455 6.91062 10.9455 7.4999C10.9455 8.08919 10.4662 8.57133 9.8804 8.57133C9.2946 8.57133 8.81531 8.08919 8.81531 7.4999C8.81531 6.91062 9.2946 6.42848 9.8804 6.42848Z" fill="#0063BD"/>
<path d="M1.35969 13.393H4.02241H4.07567C4.28869 14.3037 5.14076 15.0001 6.15259 15.0001C7.16443 15.0001 7.96324 14.3037 8.22952 13.393H8.28277H14.1408C14.4603 13.393 14.6733 13.1787 14.6733 12.8573C14.6733 12.5358 14.4603 12.3216 14.1408 12.3216H8.28277H8.22952C8.0165 11.4108 7.16443 10.7144 6.15259 10.7144C5.14076 10.7144 4.34194 11.4108 4.07567 12.3216H4.02241H1.35969C1.04017 12.3216 0.827148 12.5358 0.827148 12.8573C0.827148 13.1787 1.04017 13.393 1.35969 13.393ZM6.15259 11.7858C6.73839 11.7858 7.21768 12.268 7.21768 12.8573C7.21768 13.4465 6.73839 13.9287 6.15259 13.9287C5.56679 13.9287 5.0875 13.4465 5.0875 12.8573C5.0875 12.268 5.56679 11.7858 6.15259 11.7858Z" fill="#0063BD"/>
</svg>
