<svg width="20" height="20" viewBox="0 0 20 20" fill="none" xmlns="http://www.w3.org/2000/svg">
<path d="M19.3772 5.12097C19.5866 5.12097 19.7535 5.21169 19.8778 5.39315C20.0021 5.5746 20.0316 5.77285 19.9662 5.9879L16.9624 15.0605C16.9231 15.1815 16.8479 15.2823 16.7366 15.3629C16.6254 15.4435 16.5043 15.4839 16.3734 15.4839H7.89223C7.80061 15.4839 7.71553 15.4637 7.637 15.4234C7.55847 15.3831 7.48976 15.3259 7.43086 15.252C7.37197 15.1781 7.32943 15.1008 7.30325 15.0202L3.82832 1.91532C3.77596 1.71371 3.71052 1.5625 3.63199 1.46169C3.55346 1.36089 3.4913 1.30376 3.44549 1.29032C3.39968 1.27688 3.3506 1.27016 3.29824 1.27016H0.608604C0.503898 1.27016 0.402464 1.24328 0.304302 1.18952C0.20614 1.13575 0.130883 1.05847 0.0785296 0.957661C0.0261765 0.856855 0 0.752688 0 0.645161C0 0.456989 0.0588972 0.302419 0.176692 0.181452C0.294486 0.0604839 0.438457 0 0.608604 0H3.29824C3.42913 0 3.56001 0.0168011 3.69089 0.0504032C3.82177 0.0840054 3.97556 0.147849 4.15225 0.241935C4.32894 0.336021 4.49582 0.497312 4.65288 0.725806C4.80994 0.954301 4.93428 1.22984 5.02589 1.55242L6.04678 5.12097H19.3772Z" fill="#0063BD"/>
<path d="M13.5954 17.248C13.903 16.9321 14.2728 16.7742 14.7047 16.7742C15.1366 16.7742 15.5063 16.9321 15.8139 17.248C16.1215 17.5638 16.2753 17.9435 16.2753 18.3871C16.2753 18.8306 16.1215 19.2103 15.8139 19.5262C15.5063 19.8421 15.1366 20 14.7047 20C14.2728 20 13.903 19.8421 13.5954 19.5262C13.2879 19.2103 13.1341 18.8306 13.1341 18.3871C13.1341 17.9435 13.2879 17.5638 13.5954 17.248Z" fill="#0063BD"/>
<path d="M8.25542 16.996C8.49756 16.8481 8.7626 16.7742 9.05054 16.7742C9.15524 16.7742 9.25995 16.7843 9.36466 16.8044C9.46936 16.8246 9.56752 16.8548 9.65914 16.8952C9.75076 16.9355 9.83911 16.9859 9.92418 17.0464C10.0093 17.1069 10.0878 17.1741 10.1598 17.248C10.2318 17.3219 10.2972 17.4026 10.3561 17.4899C10.415 17.5773 10.4641 17.668 10.5033 17.7621C10.5426 17.8562 10.572 17.957 10.5917 18.0645C10.6113 18.172 10.6211 18.2796 10.6211 18.3871C10.6211 18.8306 10.4673 19.2103 10.1598 19.5262C9.85219 19.8421 9.48245 20 9.05054 20C8.61862 20 8.24888 19.8421 7.94131 19.5262C7.63373 19.2103 7.47994 18.8306 7.47994 18.3871C7.47994 18.0914 7.54866 17.8226 7.68608 17.5806C7.82351 17.3387 8.01329 17.1438 8.25542 16.996Z" fill="#0063BD"/>
</svg>
