<svg width="26" height="26" viewBox="0 0 26 26" fill="none" xmlns="http://www.w3.org/2000/svg">
<g opacity="0.597">
<path opacity="0.597" d="M18.0218 0H7.6626C5.63843 0.00229384 3.69784 0.807204 2.26654 2.23815C0.835238 3.66909 0.0301264 5.6092 0.027832 7.63286L0.027832 17.9895C0.028487 20.0143 0.832875 21.956 2.26435 23.3882C3.69583 24.8205 5.63736 25.6263 7.6626 25.6286H18.0218C20.0482 25.6279 21.9913 24.8229 23.4241 23.3904C24.8569 21.958 25.6621 20.0153 25.6628 17.9895V7.63286C25.6605 5.60813 24.8545 3.66708 23.4219 2.23596C21.9893 0.804842 20.0471 0.000654799 18.0218 0V0ZM23.0783 17.9895C23.0783 19.3302 22.5455 20.616 21.5973 21.564C20.649 22.5121 19.3629 23.0447 18.0218 23.0447H7.6626C6.32155 23.0447 5.03544 22.5121 4.08718 21.564C3.13892 20.616 2.60619 19.3302 2.60619 17.9895V7.63286C2.60619 6.29215 3.13892 5.00635 4.08718 4.05833C5.03544 3.11031 6.32155 2.57771 7.6626 2.57771H18.0218C19.3629 2.57771 20.649 3.11031 21.5973 4.05833C22.5455 5.00635 23.0783 6.29215 23.0783 7.63286V17.9895Z" fill="#5F6D7C"/>
<path opacity="0.597" d="M12.843 6.18433C11.5319 6.18433 10.2502 6.57303 9.16007 7.30127C8.06991 8.02951 7.22023 9.06458 6.71848 10.2756C6.21673 11.4866 6.08546 12.8192 6.34125 14.1048C6.59704 15.3904 7.2284 16.5713 8.15551 17.4982C9.08262 18.4251 10.2638 19.0563 11.5498 19.312C12.8357 19.5678 14.1686 19.4365 15.3799 18.9349C16.5913 18.4333 17.6266 17.5838 18.355 16.4939C19.0834 15.404 19.4722 14.1226 19.4722 12.8118C19.4703 11.0547 18.7712 9.37013 17.5284 8.12765C16.2856 6.88518 14.6006 6.18629 12.843 6.18433ZM12.843 16.8604C12.0419 16.8604 11.2587 16.6229 10.5925 16.1779C9.92639 15.7329 9.40718 15.1004 9.10058 14.3604C8.79399 13.6204 8.71376 12.8061 8.87006 12.0205C9.02637 11.2349 9.41217 10.5133 9.97869 9.94696C10.5452 9.38058 11.267 8.99487 12.0528 8.83861C12.8386 8.68235 13.653 8.76255 14.3932 9.06907C15.1334 9.37559 15.7661 9.89467 16.2112 10.5607C16.6563 11.2266 16.8939 12.0096 16.8939 12.8106C16.8939 13.8847 16.4671 14.9148 15.7074 15.6743C14.9477 16.4337 13.9174 16.8604 12.843 16.8604Z" fill="#5F6D7C"/>
<path opacity="0.597" d="M19.4844 7.8235C20.3619 7.8235 21.0733 7.11231 21.0733 6.23502C21.0733 5.35773 20.3619 4.64655 19.4844 4.64655C18.6069 4.64655 17.8955 5.35773 17.8955 6.23502C17.8955 7.11231 18.6069 7.8235 19.4844 7.8235Z" fill="#5F6D7C"/>
</g>
</svg>
