<svg width="27" height="26" viewBox="0 0 27 26" fill="none" xmlns="http://www.w3.org/2000/svg">
<path opacity="0.597" d="M24.6472 0H3.34662C2.72258 0 2.12409 0.247839 1.68282 0.688996C1.24155 1.13015 0.993652 1.72849 0.993652 2.35238L0.993652 23.6476C0.993652 24.2715 1.24155 24.8698 1.68282 25.311C2.12409 25.7522 2.72258 26 3.34662 26H24.6472C25.2712 26 25.8697 25.7522 26.311 25.311C26.7523 24.8698 27.0002 24.2715 27.0002 23.6476V2.35238C27.0002 1.72849 26.7523 1.13015 26.311 0.688996C25.8697 0.247839 25.2712 0 24.6472 0V0ZM9.04329 22.4504C9.04329 22.632 8.97114 22.8061 8.8427 22.9345C8.71427 23.0629 8.54008 23.135 8.35845 23.135H5.442C5.26037 23.135 5.08618 23.0629 4.95775 22.9345C4.82932 22.8061 4.75717 22.632 4.75717 22.4504V10.2366C4.75717 10.055 4.82932 9.88084 4.95775 9.75244C5.08618 9.62404 5.26037 9.55191 5.442 9.55191H8.35597C8.5376 9.55191 8.71179 9.62404 8.84023 9.75244C8.96866 9.88084 9.04081 10.055 9.04081 10.2366L9.04329 22.4504ZM6.89961 8.40171C6.35168 8.40294 5.81569 8.24162 5.35951 7.93817C4.90332 7.63472 4.54744 7.20279 4.33691 6.69704C4.12637 6.1913 4.07065 5.63447 4.1768 5.09705C4.28294 4.55963 4.54618 4.06578 4.93319 3.67799C5.32021 3.29021 5.8136 3.02593 6.35091 2.91861C6.88823 2.81129 7.44532 2.86575 7.95166 3.0751C8.458 3.28445 8.89084 3.63927 9.19538 4.09466C9.49993 4.55005 9.66249 5.08554 9.66249 5.63333C9.66249 6.36648 9.3716 7.06969 8.85364 7.58869C8.33567 8.10768 7.63294 8.40007 6.89961 8.40171ZM24.2757 22.5049C24.2757 22.6717 24.2094 22.8316 24.0914 22.9496C23.9734 23.0675 23.8134 23.1338 23.6466 23.1338H20.5146C20.3478 23.1338 20.1878 23.0675 20.0698 22.9496C19.9518 22.8316 19.8855 22.6717 19.8855 22.5049V16.7762C19.8855 15.9219 20.1332 13.031 17.6564 13.031C15.7294 13.031 15.3381 15.0119 15.2601 15.8971V22.5049C15.2601 22.6717 15.1938 22.8316 15.0758 22.9496C14.9578 23.0675 14.7978 23.1338 14.631 23.1338H11.6006C11.4337 23.1338 11.2737 23.0675 11.1557 22.9496C11.0378 22.8316 10.9715 22.6717 10.9715 22.5049V10.1821C10.9715 10.0153 11.0378 9.85531 11.1557 9.73736C11.2737 9.61941 11.4337 9.55314 11.6006 9.55314H14.6248C14.7916 9.55314 14.9516 9.61941 15.0696 9.73736C15.1876 9.85531 15.2539 10.0153 15.2539 10.1821V11.2481C15.6881 10.5916 16.2944 10.0672 17.0067 9.73198C17.7189 9.3968 18.5096 9.26384 19.2923 9.34762C24.2992 9.34762 24.2707 14.0251 24.2707 16.5942V22.5049H24.2757Z" fill="#5F6D7C"/>
</svg>
