<svg width="144" height="37" viewBox="0 0 144 37" fill="none" xmlns="http://www.w3.org/2000/svg">
<path d="M14.0276 0.964495C10.5299 0.964495 4.08946 1.02111 4.08946 1.02111C3.15837 1.27434 2.32758 1.80677 1.70933 2.54647C1.09109 3.28616 0.715187 4.19748 0.632414 5.15728C2.35668 5.15728 9.43052 5.17333 14.0494 5.19315C14.0494 6.41994 14.0428 7.84207 14.0343 9.34536C8.72816 9.33592 0.546387 9.30289 0.546387 9.30289C0.546387 9.30289 1.17218 13.5381 4.69351 13.5381C7.54838 13.5381 12.3506 13.5089 14.0267 13.4891C14.0116 18.5519 14.0172 23.2638 14.0172 23.2638C14.0172 23.2638 18.239 22.6466 18.239 19.1436C18.239 15.6407 18.188 5.06763 18.188 5.06763C18.188 5.06763 18.5529 0.999408 14.0286 0.957886" fill="url(#paint0_linear)"/>
<path d="M61.3696 5.13462C61.3696 5.13462 61.811 0.938057 57.2045 0.96448C53.6964 0.96448 47.272 1.02203 47.272 1.02203C46.3324 1.27988 45.4954 1.82095 44.8753 2.57136C44.2552 3.32177 43.8823 4.24494 43.8074 5.21483C45.5345 5.21483 52.5989 5.2356 57.2224 5.24975C57.2168 6.49447 57.2139 7.94491 57.2139 9.47651C51.8984 9.45952 43.7261 9.43027 43.7261 9.43027C43.7261 9.43027 44.3557 13.7382 47.8609 13.7382C50.7224 13.7382 55.5341 13.6986 57.2045 13.6844C57.2045 15.7331 57.1941 17.7111 57.1837 19.3767C52.2756 19.3569 44.5107 19.3314 44.5107 19.3314C44.5107 19.3314 45.1129 23.6318 48.481 23.6318C51.4342 23.6318 57.178 23.6063 57.178 23.6063C57.178 23.6063 61.5378 23.8253 61.4187 19.4154C61.4187 15.8615 61.3714 5.13368 61.3714 5.13368" fill="url(#paint1_linear)"/>
<path d="M38.6069 4.46458C38.359 3.52877 37.8296 2.69135 37.0901 2.06531C36.3505 1.43926 35.4364 1.0547 34.4711 0.963501C34.4711 2.84238 34.5202 13.3937 34.5098 19.4871C31.9225 19.4777 28.9788 19.5418 26.7781 19.5371C26.7903 12.7756 26.8225 0.963501 26.8225 0.963501C26.8225 0.963501 22.5742 1.59483 22.5742 5.16007C22.5742 8.71116 22.6253 20.3477 22.6253 20.3477C22.883 21.2756 23.4189 22.1026 24.161 22.7176C24.9032 23.3327 25.8161 23.7063 26.7771 23.7884L37.2059 23.7648C38.1422 23.5047 38.9758 22.9637 39.5939 22.2149C40.2119 21.4661 40.5844 20.5458 40.6611 19.5786C40.2527 19.5786 39.4926 19.5126 38.6031 19.5126C38.6031 15.8756 38.6031 4.46363 38.6031 4.46363" fill="url(#paint2_linear)"/>
<path d="M83.0609 4.42116C83.0609 4.42116 83.0968 1.23151 78.8372 0.963501V0.96916H70.0325V0.963501C70.0325 0.963501 65.873 1.59483 65.873 5.10628C65.873 8.60357 65.926 12.2198 65.926 15.8067C66.0234 16.8098 66.5124 17.7344 67.2872 18.3805C68.062 19.0267 69.0603 19.3425 70.0665 19.2597C70.178 19.2653 71.5942 19.2795 72.5877 19.2767V23.6176H76.6526V19.2559C77.6924 19.2502 79.4016 19.2729 79.4016 19.2729C80.4299 19.176 81.3838 18.6952 82.0724 17.9266C82.761 17.158 83.1336 16.1583 83.1157 15.1273C83.1157 11.6205 83.0675 4.41739 83.0675 4.41739L83.0609 4.42116ZM72.514 15.1669H69.7357V5.25727H72.514V15.1669ZM79.5689 15.0971H76.4276V5.25632H79.5661L79.5689 15.0971Z" fill="url(#paint3_linear)"/>
<path d="M143.525 5.08373C143.629 4.13659 143.361 3.18594 142.778 2.43178C142.195 1.67761 141.341 1.17872 140.397 1.04004H133.36C132.504 1.13645 131.702 1.50283 131.07 2.08586C130.438 2.66889 130.009 3.43814 129.845 4.28159V11.2649C129.91 12.0523 130.26 12.7893 130.829 13.3383C131.398 13.8873 132.148 14.2109 132.939 14.2488H139.135V19.3447H129.169C129.349 22.9722 132.091 23.4639 132.091 23.4639C132.091 23.4639 136.075 23.4639 139.16 23.478C139.16 23.478 142.909 23.2808 143.225 20.3242V13.341C143.146 12.5171 142.579 10.1324 138.933 10.1324C138.927 10.1291 138.92 10.1272 138.913 10.1268H133.955V5.08373H143.525Z" fill="url(#paint4_linear)"/>
<path d="M121.542 0.969194V19.2965H112.656V0.969194C112.266 1.04091 109.064 1.66846 108.533 4.32587V20.5639C108.865 23.7809 112.434 23.4723 112.434 23.4723C112.451 23.4789 121.56 23.4789 121.56 23.4789C121.56 23.4789 125.112 23.2987 125.625 20.1647V4.7647C125.627 4.24127 125.52 3.72309 125.312 3.24279C125.103 2.76248 124.797 2.33046 124.414 1.97392C124.03 1.61738 123.576 1.34405 123.081 1.17113C122.586 0.998215 122.061 0.929457 121.538 0.969194" fill="url(#paint5_linear)"/>
<path d="M100.511 1.02202V1.00598C100.492 0.995596 100.468 0.995604 100.453 0.978618H100.441H100.321C100.316 0.972955 100.305 0.972947 100.299 0.967285V0.972959H91.4882V0.967285C91.4882 0.967285 87.2456 1.59861 87.2456 5.11006C87.2456 8.62151 87.3042 20.0665 87.3042 20.0665C87.557 20.9953 88.089 21.8243 88.8285 22.4418C89.5681 23.0592 90.4796 23.4354 91.44 23.5195C91.44 21.6793 91.4683 11.3459 91.4797 5.32333H100.289C100.28 11.999 100.248 23.5195 100.248 23.5195C100.248 23.5195 104.488 22.8872 104.488 19.3842C104.488 15.8813 104.44 4.42495 104.44 4.42495C104.309 3.47965 103.838 2.61416 103.115 1.9893C102.393 1.36445 101.467 1.02274 100.511 1.02769" fill="url(#paint6_linear)"/>
<path d="M92.9308 36.3064H91.8701C91.7661 36.3064 91.7122 36.2583 91.7122 36.1564V32.9724C91.7122 32.9195 91.6867 32.8884 91.6375 32.8884H88.8659C88.8545 32.8874 88.843 32.8889 88.8323 32.8928C88.8215 32.8966 88.8117 32.9027 88.8036 32.9107C88.7954 32.9187 88.7891 32.9283 88.785 32.939C88.7809 32.9496 88.7791 32.961 88.7799 32.9724V36.1564C88.7799 36.2583 88.7373 36.3064 88.6191 36.3064H87.5519C87.5318 36.3088 87.5114 36.3066 87.4923 36.2998C87.4732 36.293 87.4559 36.282 87.4418 36.2674C87.4277 36.2529 87.4172 36.2353 87.411 36.2161C87.4048 36.1968 87.4032 36.1764 87.4063 36.1564L87.4167 32.6864L87.4063 29.1882C87.4037 29.1682 87.4056 29.1479 87.4119 29.1287C87.4182 29.1095 87.4287 29.092 87.4426 29.0775C87.4566 29.0629 87.4737 29.0516 87.4926 29.0445C87.5115 29.0374 87.5317 29.0346 87.5519 29.0363H88.6201C88.7383 29.0363 88.7808 29.0929 88.7808 29.1882V32.3024C88.781 32.3134 88.7835 32.3242 88.7879 32.3342C88.7924 32.3443 88.7988 32.3533 88.8068 32.3609C88.8148 32.3684 88.8242 32.3743 88.8345 32.3782C88.8448 32.3821 88.8558 32.3839 88.8668 32.3835H91.6423C91.6527 32.3837 91.6631 32.3817 91.6726 32.3776C91.6822 32.3735 91.6909 32.3674 91.6979 32.3597C91.705 32.352 91.7103 32.343 91.7136 32.3331C91.7169 32.3232 91.718 32.3127 91.717 32.3024V29.1882C91.7149 29.1673 91.7177 29.1461 91.725 29.1264C91.7323 29.1066 91.7439 29.0888 91.7591 29.0741C91.7743 29.0595 91.7926 29.0485 91.8126 29.042C91.8327 29.0354 91.8539 29.0335 91.8748 29.0363H92.9355C93.047 29.0363 93.1028 29.0929 93.1028 29.1882L93.0896 32.6864L93.1028 36.1564C93.1028 36.2583 93.047 36.3064 92.9355 36.3064" fill="url(#paint7_linear)"/>
<path d="M102.07 36.3111H100.761C100.715 36.314 100.669 36.3005 100.632 36.2731C100.594 36.2457 100.568 36.206 100.557 36.1611C100.557 36.1611 100.368 35.642 100.261 35.3391L99.8744 34.3096C99.8618 34.2811 99.8411 34.257 99.8148 34.2402C99.7886 34.2235 99.758 34.2147 99.7269 34.2152H97.4676C97.4366 34.2141 97.4059 34.2226 97.3799 34.2394C97.3538 34.2563 97.3336 34.2808 97.322 34.3096L96.7359 36.1686C96.7254 36.2103 96.7009 36.2472 96.6665 36.2731C96.6321 36.299 96.5899 36.3124 96.5468 36.3111H95.6961C95.5826 36.3111 95.5552 36.2262 95.5883 36.1224L98.307 29.0938C98.3581 28.9324 99.1654 28.9324 99.2296 29.0938L101.768 35.3514C101.888 35.628 102.024 35.8977 102.175 36.1592C102.217 36.2601 102.175 36.3092 102.074 36.3092L102.07 36.3111ZM98.6218 30.8972C98.6201 30.8838 98.6135 30.8715 98.6033 30.8626C98.5931 30.8537 98.5801 30.8487 98.5665 30.8487C98.553 30.8487 98.5399 30.8537 98.5297 30.8626C98.5195 30.8715 98.513 30.8838 98.5112 30.8972L97.5659 33.5791C97.5626 33.594 97.5625 33.6094 97.5656 33.6244C97.5687 33.6393 97.5749 33.6534 97.5838 33.6658C97.5927 33.6782 97.6042 33.6885 97.6174 33.6962C97.6306 33.7039 97.6453 33.7087 97.6604 33.7103H99.5738C99.5883 33.7084 99.6022 33.7032 99.6144 33.6951C99.6266 33.6869 99.6367 33.6761 99.6439 33.6633C99.6512 33.6506 99.6553 33.6364 99.6561 33.6218C99.6569 33.6072 99.6543 33.5926 99.6484 33.5791L98.6218 30.8972Z" fill="url(#paint8_linear)"/>
<path d="M107.012 33.0035C106.97 33.0819 106.949 33.1696 106.951 33.2583V36.1602C106.954 36.1807 106.952 36.2015 106.945 36.2211C106.938 36.2407 106.927 36.2584 106.912 36.2729C106.898 36.2875 106.88 36.2984 106.86 36.3049C106.84 36.3113 106.819 36.3132 106.799 36.3102H105.724C105.62 36.3102 105.577 36.2611 105.577 36.1602L105.586 33.4867C105.581 33.3956 105.548 33.3082 105.492 33.2366L102.838 29.1911C102.775 29.0967 102.802 29.0391 102.906 29.0391H104.202C104.253 29.038 104.303 29.0517 104.347 29.0787C104.39 29.1057 104.425 29.1447 104.446 29.1911L106.379 32.3335C106.414 32.3854 106.507 32.3902 106.523 32.3335L108.285 29.1392C108.334 29.0542 108.379 29.0391 108.497 29.0391H109.347C109.458 29.0391 109.477 29.1156 109.41 29.2014L107.012 33.0035Z" fill="url(#paint9_linear)"/>
<path d="M114.156 33.2083H113.5C113.443 33.2101 113.388 33.232 113.345 33.2701C113.302 33.3083 113.274 33.3602 113.266 33.4169L113.28 36.1611C113.28 36.263 113.229 36.3112 113.117 36.3112H112.055C111.943 36.3112 111.891 36.263 111.891 36.1611L111.911 32.677L111.891 29.1929C111.891 29.0986 111.942 29.041 112.055 29.041H114.668C115.897 29.041 117.126 29.5893 117.126 31.0633C117.126 32.2845 116.154 33.2102 114.155 33.2102L114.156 33.2083ZM113.753 29.5298H113.564C113.487 29.5295 113.413 29.5587 113.357 29.6114C113.301 29.6641 113.268 29.7363 113.264 29.8129V32.5336C113.271 32.5925 113.298 32.6472 113.34 32.6883C113.383 32.7295 113.439 32.7545 113.498 32.7591H113.635C114.754 32.7591 115.672 32.4222 115.672 31.0379C115.672 30.013 115.12 29.5279 113.753 29.5279" fill="url(#paint10_linear)"/>
<path d="M122.879 36.5282C120.429 36.5282 119.735 34.7069 119.735 32.7233C119.735 30.7906 120.51 28.8485 122.92 28.8485C125.378 28.8485 126.089 30.6604 126.089 32.6468C126.089 34.5748 125.309 36.5273 122.875 36.5273L122.879 36.5282ZM122.859 29.3713C121.39 29.3713 121.198 31.1209 121.198 32.5261C121.198 33.8859 121.286 36.0045 122.955 36.0045C124.415 36.0045 124.625 34.2379 124.625 32.8394C124.625 31.4946 124.531 29.3713 122.858 29.3713" fill="url(#paint11_linear)"/>
<path d="M131.522 36.4536C130.67 36.458 129.825 36.2917 129.037 35.9648C128.999 35.9456 128.97 35.9132 128.955 35.8736C128.939 35.8341 128.939 35.7902 128.954 35.7506L129.181 34.9437C129.202 34.8493 129.308 34.8493 129.38 34.923C129.673 35.2183 130.021 35.4527 130.405 35.6123C130.788 35.7719 131.2 35.8535 131.616 35.8525C131.962 35.8661 132.3 35.7479 132.562 35.5218C132.824 35.2958 132.989 34.9788 133.026 34.6351C133.026 32.7374 128.976 33.5273 128.976 30.783C128.976 29.5883 129.817 28.8645 131.164 28.8645C132.007 28.8927 132.848 28.9655 133.683 29.0825C133.759 29.0825 133.783 29.1608 133.759 29.2335L133.603 30.0517C133.596 30.0711 133.585 30.0886 133.569 30.1028C133.554 30.117 133.536 30.1274 133.516 30.1333C133.496 30.1392 133.475 30.1403 133.455 30.1366C133.435 30.1329 133.416 30.1245 133.399 30.1121C132.736 29.6651 131.954 29.4271 131.154 29.4288C130.89 29.4122 130.63 29.5005 130.432 29.6742C130.233 29.848 130.111 30.0933 130.092 30.3565C130.092 32.3061 134.157 31.3945 134.157 34.3869C134.157 35.8534 133.023 36.4546 131.522 36.4546" fill="url(#paint12_linear)"/>
<path d="M142.159 29.7006C142.141 29.795 142.103 29.8224 141.996 29.811C141.996 29.811 140.761 29.6629 140.154 29.6629C140.103 29.6714 140.057 29.6986 140.024 29.7392C139.992 29.7798 139.976 29.8309 139.979 29.8828L139.965 32.6799L139.979 36.1639C139.982 36.1843 139.98 36.2051 139.974 36.2247C139.967 36.2443 139.957 36.2621 139.942 36.2767C139.928 36.2913 139.91 36.3023 139.89 36.3088C139.871 36.3153 139.85 36.317 139.829 36.314H138.763C138.645 36.314 138.599 36.2658 138.599 36.1639L138.615 32.6799L138.599 29.8828C138.603 29.8321 138.588 29.782 138.557 29.7416C138.526 29.7012 138.482 29.6732 138.432 29.6629C137.823 29.6629 136.587 29.811 136.587 29.811C136.492 29.8224 136.446 29.7959 136.424 29.7006L136.389 29.1637C136.38 29.0759 136.489 29.0438 136.587 29.0438H141.996C142.103 29.0438 142.211 29.0759 142.185 29.1637L142.159 29.7006Z" fill="url(#paint13_linear)"/>
<defs>
<linearGradient id="paint0_linear" x1="7.41114" y1="8.36344" x2="-2.08768" y2="21.3349" gradientUnits="userSpaceOnUse">
<stop stop-color="#F18E00"/>
<stop offset="1" stop-color="#F16F00"/>
</linearGradient>
<linearGradient id="paint1_linear" x1="50.5918" y1="8.48994" x2="40.8935" y2="21.5242" gradientUnits="userSpaceOnUse">
<stop stop-color="#F18E00"/>
<stop offset="1" stop-color="#F16F00"/>
</linearGradient>
<linearGradient id="paint2_linear" x1="29.5919" y1="8.54137" x2="19.8692" y2="21.8057" gradientUnits="userSpaceOnUse">
<stop stop-color="#F18E00"/>
<stop offset="1" stop-color="#F16F00"/>
</linearGradient>
<linearGradient id="paint3_linear" x1="72.5635" y1="8.48466" x2="62.8032" y2="21.275" gradientUnits="userSpaceOnUse">
<stop stop-color="#F18E00"/>
<stop offset="1" stop-color="#F16F00"/>
</linearGradient>
<linearGradient id="paint4_linear" x1="134.748" y1="8.48945" x2="124.773" y2="19.4933" gradientUnits="userSpaceOnUse">
<stop stop-color="#F18E00"/>
<stop offset="1" stop-color="#F16F00"/>
</linearGradient>
<linearGradient id="paint5_linear" x1="115.165" y1="8.43557" x2="105.454" y2="21.1232" gradientUnits="userSpaceOnUse">
<stop stop-color="#F18E00"/>
<stop offset="1" stop-color="#F16F00"/>
</linearGradient>
<linearGradient id="paint6_linear" x1="93.9358" y1="8.45461" x2="84.2309" y2="21.2292" gradientUnits="userSpaceOnUse">
<stop stop-color="#F18E00"/>
<stop offset="1" stop-color="#F16F00"/>
</linearGradient>
<linearGradient id="paint7_linear" x1="89.6156" y1="31.4494" x2="86.5075" y2="35.6422" gradientUnits="userSpaceOnUse">
<stop stop-color="#F18E00"/>
<stop offset="1" stop-color="#F16F00"/>
</linearGradient>
<linearGradient id="paint8_linear" x1="98.1422" y1="31.4092" x2="95.1573" y2="36.0422" gradientUnits="userSpaceOnUse">
<stop stop-color="#F18E00"/>
<stop offset="1" stop-color="#F16F00"/>
</linearGradient>
<linearGradient id="paint9_linear" x1="105.382" y1="31.4535" x2="102.441" y2="36.0806" gradientUnits="userSpaceOnUse">
<stop stop-color="#F18E00"/>
<stop offset="1" stop-color="#F16F00"/>
</linearGradient>
<linearGradient id="paint10_linear" x1="113.922" y1="31.4547" x2="110.749" y2="35.3895" gradientUnits="userSpaceOnUse">
<stop stop-color="#F18E00"/>
<stop offset="1" stop-color="#F16F00"/>
</linearGradient>
<linearGradient id="paint11_linear" x1="122.201" y1="31.3982" x2="118.974" y2="35.9937" gradientUnits="userSpaceOnUse">
<stop stop-color="#F18E00"/>
<stop offset="1" stop-color="#F16F00"/>
</linearGradient>
<linearGradient id="paint12_linear" x1="130.966" y1="31.3844" x2="127.623" y2="35.3385" gradientUnits="userSpaceOnUse">
<stop stop-color="#F18E00"/>
<stop offset="1" stop-color="#F16F00"/>
</linearGradient>
<linearGradient id="paint13_linear" x1="138.639" y1="31.458" x2="135.548" y2="35.7031" gradientUnits="userSpaceOnUse">
<stop stop-color="#F18E00"/>
<stop offset="1" stop-color="#F16F00"/>
</linearGradient>
</defs>
</svg>
