<svg width="18" height="15" viewBox="0 0 18 15" fill="none" xmlns="http://www.w3.org/2000/svg">
<path d="M8.98436 3.19072C9.08333 3.29772 9.13721 3.43925 9.13465 3.58548C9.13209 3.73171 9.07328 3.87124 8.97063 3.97466C8.86797 4.07808 8.72947 4.13732 8.58431 4.1399C8.43916 4.14248 8.29867 4.0882 8.19245 3.98849L5.71499 1.92457L5.71499 14.4357C5.71499 14.5854 5.65596 14.7289 5.55088 14.8348C5.44581 14.9407 5.30329 15.0001 5.15469 15.0001C5.00608 15.0001 4.86357 14.9407 4.75849 14.8348C4.65341 14.7289 4.59438 14.5854 4.59438 14.4357L4.59438 1.93134L2.33547 3.9884C2.28417 4.04385 2.22232 4.08833 2.15358 4.11919C2.08485 4.15004 2.01066 4.16663 1.93543 4.16796C1.86019 4.1693 1.78546 4.15536 1.7157 4.12697C1.64593 4.09858 1.58255 4.05633 1.52934 4.00273C1.47614 3.94912 1.43419 3.88528 1.40601 3.81499C1.37783 3.74471 1.36399 3.66942 1.36532 3.59363C1.36665 3.51784 1.38312 3.4431 1.41374 3.37386C1.44436 3.30462 1.48852 3.2423 1.54357 3.19062L4.71914 0.209358C4.77164 0.143957 4.83801 0.0912223 4.91338 0.0550188C4.98874 0.0188154 5.07119 6.12362e-05 5.15469 0.000131462C5.22887 -0.000299769 5.3024 0.0141145 5.37101 0.0425375C5.43962 0.0709606 5.50195 0.112826 5.55437 0.165707L8.98436 3.19072Z" fill="#0063BD"/>
<path d="M9.65041 11.8093C9.55144 11.7023 9.49756 11.5608 9.50012 11.4145C9.50268 11.2683 9.56148 11.1288 9.66414 11.0253C9.7668 10.9219 9.90529 10.8627 10.0505 10.8601C10.1956 10.8575 10.3361 10.9118 10.4423 11.0115L12.9198 13.0754L12.9198 0.564339C12.9198 0.414635 12.9788 0.271063 13.0839 0.165206C13.189 0.0593494 13.3315 -0.000121726 13.4801 -0.000121739C13.6287 -0.000121752 13.7712 0.0593494 13.8763 0.165206C13.9814 0.271063 14.0404 0.414635 14.0404 0.564339L14.0404 13.0687L16.2993 11.0116C16.3506 10.9561 16.4125 10.9117 16.4812 10.8808C16.5499 10.85 16.6241 10.8334 16.6993 10.832C16.7746 10.8307 16.8493 10.8446 16.9191 10.873C16.9888 10.9014 17.0522 10.9437 17.1054 10.9973C17.1586 11.0509 17.2006 11.1147 17.2288 11.185C17.2569 11.2553 17.2708 11.3306 17.2694 11.4064C17.2681 11.4822 17.2516 11.5569 17.221 11.6261C17.1904 11.6954 17.1462 11.7577 17.0912 11.8094L13.9156 14.7906C13.8631 14.856 13.7968 14.9088 13.7214 14.945C13.646 14.9812 13.5636 14.9999 13.4801 14.9999C13.4059 15.0003 13.3324 14.9859 13.2638 14.9575C13.1951 14.929 13.1328 14.8872 13.0804 14.8343L9.65041 11.8093Z" fill="#0063BD"/>
</svg>
