<svg width="10" height="6" viewBox="0 0 10 6" fill="none" xmlns="http://www.w3.org/2000/svg">
<path fill-rule="evenodd" clip-rule="evenodd" d="M8.7252 0.857666C8.5868 0.857736 8.44995 0.88072 8.32344 0.925143C8.19693 0.969565 8.08355 1.03444 7.99059 1.11561L5.06312 3.64759L2.13465 1.11561C2.04191 1.03443 1.92872 0.969528 1.80236 0.9251C1.676 0.880672 1.53929 0.8577 1.40103 0.857666C1.20756 0.858237 1.01847 0.903246 0.856682 0.987231C0.694897 1.07122 0.567378 1.19057 0.489601 1.33081C0.411823 1.47104 0.387128 1.62614 0.418514 1.77727C0.449899 1.9284 0.536015 2.06907 0.666413 2.18221L4.3315 5.34718C4.42513 5.42801 4.53896 5.49254 4.66576 5.53669C4.79257 5.58083 4.92959 5.60363 5.06811 5.60363C5.20664 5.60363 5.34366 5.58083 5.47046 5.53669C5.59727 5.49254 5.7111 5.42801 5.80473 5.34718L9.46981 2.18221C9.60016 2.06912 9.68626 1.92852 9.71768 1.77746C9.7491 1.6264 9.72449 1.47137 9.64683 1.33117C9.56918 1.19096 9.44181 1.0716 9.28018 0.987553C9.11854 0.903508 8.92958 0.858389 8.7362 0.857666H8.7252Z" fill="#0063BD"/>
</svg>
