<svg width="513" height="320" viewBox="0 0 513 320" fill="none" xmlns="http://www.w3.org/2000/svg">
<path opacity="0.1" d="M50.5318 168.998C42.7675 123.544 25.3231 119.572 11.9121 96.6243C-0.28889 75.7948 -10.0698 41.6379 24.3148 17.1897C77.7572 -20.7624 143.3 18.0723 143.3 18.0723C143.3 18.0723 247.159 70.1461 265.31 72.7939C283.46 75.4417 327.827 101.92 383.286 70.1461C438.745 38.3723 486.138 41.0201 501.263 64.8505C516.388 88.6808 482.104 157.524 474.037 171.646C465.971 185.768 478.071 229.898 491.179 247.55C504.288 265.202 545.63 319.924 456.896 318.159C368.161 316.393 101.957 319.041 101.957 319.041C101.957 319.041 6.3662 317.452 23.3064 236.076C37.4233 168.115 53.5568 186.65 50.5318 168.998Z" fill="#F8F8FF"/>
</svg>
