<svg width="21" height="17" viewBox="0 0 21 17" fill="none" xmlns="http://www.w3.org/2000/svg">
<mask id="path-1-inside-1" fill="white">
<path d="M21 5.94474C21 0.842308 14.6087 -1.70884 10.5 1.26753C5.93478 -1.70891 0 0.842351 0 5.94475C0 11.0471 9.13043 17 10.5 17C11.8696 17 21 11.0472 21 5.94474Z"/>
</mask>
<path d="M21 5.94474C21 0.842308 14.6087 -1.70884 10.5 1.26753C5.93478 -1.70891 0 0.842351 0 5.94475C0 11.0471 9.13043 17 10.5 17C11.8696 17 21 11.0472 21 5.94474Z" fill="white"/>
<path d="M10.5 1.26753L9.68077 2.52406L10.5447 3.08735L11.38 2.48229L10.5 1.26753ZM11.38 2.48229C12.9585 1.33879 15.0161 1.23474 16.7006 1.95562C18.3663 2.66844 19.5 4.10153 19.5 5.94474H22.5C22.5 2.68552 20.438 0.291818 17.8809 -0.802452C15.3426 -1.88866 12.1502 -1.7801 9.62002 0.0527738L11.38 2.48229ZM19.5 5.94474C19.5 6.78928 19.1116 7.81805 18.3161 8.97465C17.534 10.1117 16.4487 11.2407 15.2814 12.2521C14.1186 13.2595 12.9169 14.1137 11.9389 14.7086C11.4486 15.0068 11.0345 15.2277 10.7246 15.3683C10.569 15.4389 10.4592 15.4803 10.3922 15.5014C10.3006 15.5303 10.357 15.5 10.5 15.5L10.5 18.5C10.8142 18.5 11.1024 18.4231 11.2951 18.3624C11.5122 18.2938 11.7391 18.2023 11.9641 18.1002C12.4157 17.8953 12.9397 17.6112 13.4979 17.2717C14.6171 16.5909 15.9547 15.6381 17.2458 14.5194C18.5323 13.4048 19.8152 12.0889 20.7879 10.6748C21.7471 9.28016 22.5 7.65141 22.5 5.94474H19.5ZM10.5 15.5C10.6429 15.5 10.6994 15.5303 10.6078 15.5014C10.5408 15.4803 10.431 15.4389 10.2754 15.3683C9.96549 15.2277 9.55141 15.0068 9.0611 14.7086C8.08313 14.1137 6.88136 13.2595 5.71865 12.2521C4.55135 11.2407 3.46602 10.1118 2.68391 8.97465C1.88838 7.81804 1.5 6.78928 1.5 5.94475H-1.5C-1.5 7.65141 -0.747079 9.28016 0.212147 10.6748C1.18479 12.0889 2.46767 13.4048 3.75418 14.5195C5.04527 15.6381 6.3829 16.591 7.50208 17.2717C8.06034 17.6113 8.58427 17.8954 9.03587 18.1002C9.26095 18.2024 9.48778 18.2938 9.70497 18.3624C9.89762 18.4232 10.1859 18.5 10.5 18.5L10.5 15.5ZM1.5 5.94475C1.5 4.0482 2.57525 2.63871 4.14195 1.94963C5.73004 1.25115 7.82002 1.31088 9.68077 2.52406L11.3192 0.0110058C8.61476 -1.75227 5.45475 -1.90512 2.93413 -0.796486C0.392139 0.321554 -1.5 2.7389 -1.5 5.94475H1.5Z" fill="#0063BD" mask="url(#path-1-inside-1)"/>
</svg>
