<svg width="30" height="31" viewBox="0 0 30 31" fill="none" xmlns="http://www.w3.org/2000/svg">
<path d="M11.5803 2.27012e-08C13.7363 -0.000134945 15.8495 0.601559 17.6821 1.73735C19.5147 2.87313 20.9938 4.49792 21.953 6.42879C22.9122 8.35965 23.3134 10.5199 23.1113 12.6664C22.9093 14.813 22.1121 16.8605 20.8095 18.5785L29.5418 27.3107C29.8218 27.5929 29.985 27.9702 29.999 28.3675C30.013 28.7647 29.8767 29.1526 29.6173 29.4538C29.3578 29.7549 28.9944 29.9472 28.5995 29.9922C28.2045 30.0372 27.8072 29.9316 27.4867 29.6965L27.3098 29.5428L18.5775 20.8105C17.1131 21.9205 15.4057 22.6662 13.5961 22.9859C11.7866 23.3056 9.927 23.1901 8.17093 22.649C6.41486 22.1079 4.81275 21.1567 3.49697 19.874C2.1812 18.5913 1.18953 17.014 0.603904 15.2722C0.0182759 13.5305 -0.1445 11.6744 0.129026 9.85735C0.402553 8.04027 1.10453 6.31436 2.17695 4.82223C3.24938 3.33009 4.66147 2.11455 6.29655 1.27605C7.93163 0.437548 9.74276 0.000151758 11.5803 2.27012e-08ZM11.5803 3.15853C9.34646 3.15853 7.2041 4.04592 5.62453 5.62549C4.04496 7.20506 3.15757 9.34741 3.15757 11.5813C3.15757 13.8151 4.04496 15.9575 5.62453 17.537C7.2041 19.1166 9.34646 20.004 11.5803 20.004C13.8142 20.004 15.9565 19.1166 17.5361 17.537C19.1157 15.9575 20.003 13.8151 20.003 11.5813C20.003 9.34741 19.1157 7.20506 17.5361 5.62549C15.9565 4.04592 13.8142 3.15853 11.5803 3.15853Z" fill="#5F6D7C"/>
</svg>
