<svg width="18" height="15" viewBox="0 0 18 15" fill="none" xmlns="http://www.w3.org/2000/svg">
<mask id="path-1-inside-1" fill="white">
<path d="M17.6791 5.55388C17.6791 1.26784 12.3104 -0.875123 8.85906 1.62503C5.02428 -0.875186 0.0390625 1.26788 0.0390625 5.55389C0.0390625 9.8399 7.70863 14.8403 8.85906 14.8403C10.0095 14.8403 17.6791 9.83993 17.6791 5.55388Z"/>
</mask>
<path d="M17.6791 5.55388C17.6791 1.26784 12.3104 -0.875123 8.85906 1.62503C5.02428 -0.875186 0.0390625 1.26788 0.0390625 5.55389C0.0390625 9.8399 7.70863 14.8403 8.85906 14.8403C10.0095 14.8403 17.6791 9.83993 17.6791 5.55388Z" fill="#0063BD"/>
<path d="M8.85906 1.62503L8.17091 2.68051L8.89664 3.15368L9.59825 2.64543L8.85906 1.62503ZM8.85906 14.8403L8.85909 16.1003H8.85909L8.85906 14.8403ZM9.59825 2.64543C10.9242 1.68489 12.6525 1.59748 14.0676 2.20302C15.4668 2.80179 16.4191 4.00559 16.4191 5.55388H18.9391C18.9391 2.81614 17.207 0.80543 15.059 -0.113757C12.9269 -1.02617 10.2452 -0.934981 8.11988 0.604633L9.59825 2.64543ZM16.4191 5.55388C16.4191 6.2633 16.0928 7.12746 15.4246 8.09901C14.7676 9.05417 13.8559 10.0025 12.8754 10.8521C11.8987 11.6983 10.8892 12.4158 10.0677 12.9155C9.65588 13.166 9.30805 13.3515 9.04775 13.4696C8.91701 13.529 8.8248 13.5637 8.76849 13.5815C8.69158 13.6058 8.73896 13.5803 8.85903 13.5803L8.85909 16.1003C9.12297 16.1003 9.36509 16.0357 9.52691 15.9847C9.70934 15.9271 9.89987 15.8503 10.0889 15.7645C10.4683 15.5924 10.9084 15.3538 11.3773 15.0685C12.3174 14.4967 13.441 13.6963 14.5256 12.7566C15.6062 11.8203 16.6838 10.715 17.5009 9.5271C18.3066 8.35564 18.9391 6.98749 18.9391 5.55388H16.4191ZM8.85903 13.5803C8.97913 13.5803 9.02652 13.6058 8.94961 13.5815C8.89331 13.5637 8.80111 13.529 8.67036 13.4697C8.41008 13.3516 8.06225 13.1661 7.65039 12.9155C6.82889 12.4159 5.81941 11.6983 4.84273 10.8521C3.8622 10.0025 2.95052 9.05418 2.29355 8.09901C1.6253 7.12746 1.29906 6.2633 1.29906 5.55389H-1.22094C-1.22094 6.98749 -0.588484 8.35563 0.217266 9.5271C1.03429 10.715 2.11191 11.8203 3.19257 12.7566C4.27709 13.6963 5.4007 14.4967 6.34081 15.0685C6.80975 15.3538 7.24985 15.5924 7.62919 15.7645C7.81826 15.8503 8.0088 15.9271 8.19124 15.9847C8.35306 16.0358 8.59519 16.1003 8.85909 16.1003L8.85903 13.5803ZM1.29906 5.55389C1.29906 3.96079 2.20228 2.77682 3.5183 2.19799C4.85229 1.61127 6.60788 1.66145 8.17091 2.68051L9.54722 0.569548C7.27546 -0.911602 4.62105 -1.04 2.50373 -0.108746C0.368459 0.830408 -1.22094 2.86097 -1.22094 5.55389H1.29906Z" fill="#0063BD" mask="url(#path-1-inside-1)"/>
</svg>
