<svg width="24" height="20" viewBox="0 0 24 20" fill="none" xmlns="http://www.w3.org/2000/svg">
<mask id="path-1-inside-1" fill="white">
<path d="M24 6.99381C24 0.990951 16.6957 -2.0104 12 1.49121C6.78261 -2.01049 0 0.991002 0 6.99382C0 12.9966 10.4348 20 12 20C13.5652 20 24 12.9967 24 6.99381Z"/>
</mask>
<path d="M12 1.49121L11.1641 2.7367L12.0456 3.32835L12.8967 2.69368L12 1.49121ZM12 20L12 18.5L12 20ZM12.8967 2.69368C14.7642 1.30109 17.1815 1.18116 19.1562 2.05104C21.1109 2.91214 22.5 4.67537 22.5 6.99381H25.5C25.5 3.30939 23.2369 0.570516 20.3656 -0.694375C17.5142 -1.95048 13.9315 -1.82027 11.1033 0.288744L12.8967 2.69368ZM22.5 6.99381C22.5 8.07575 22.0201 9.34496 21.0979 10.7251C20.1878 12.0872 18.9313 13.4309 17.5885 14.6285C16.25 15.8224 14.8667 16.8347 13.7393 17.5406C13.1742 17.8944 12.6936 18.1586 12.3303 18.3283C12.1478 18.4135 12.015 18.4654 11.9292 18.4933C11.8181 18.5294 11.8626 18.5 12 18.5L12 21.5C12.3331 21.5 12.6425 21.4159 12.8562 21.3465C13.0952 21.2688 13.3471 21.1644 13.5998 21.0464C14.1067 20.8097 14.6981 20.4798 15.3314 20.0833C16.6007 19.2885 18.1196 18.1747 19.5854 16.8674C21.047 15.5638 22.497 14.0312 23.5923 12.3918C24.6756 10.7706 25.5 8.9133 25.5 6.99381H22.5ZM12 18.5C12.1374 18.5 12.1819 18.5294 12.0707 18.4933C11.9849 18.4654 11.8522 18.4135 11.6697 18.3283C11.3064 18.1586 10.8258 17.8944 10.2607 17.5406C9.13332 16.8347 7.75002 15.8224 6.41147 14.6285C5.06873 13.431 3.81218 12.0872 2.90211 10.7251C1.97992 9.34495 1.5 8.07575 1.5 6.99382H-1.5C-1.5 8.9133 -0.675573 10.7706 0.407676 12.3918C1.50303 14.0312 2.95301 15.5638 4.41462 16.8674C5.88042 18.1748 7.39929 19.2885 8.66863 20.0833C9.30189 20.4798 9.89334 20.8097 10.4002 21.0464C10.6529 21.1645 10.9048 21.2689 11.1439 21.3465C11.3575 21.4159 11.667 21.5 12 21.5L12 18.5ZM1.5 6.99382C1.5 4.62238 2.81259 2.88221 4.66216 2.04479C6.53184 1.19826 8.98201 1.27218 11.1641 2.7367L12.8359 0.245726C9.8006 -1.79145 6.25077 -1.96765 3.42479 -0.688144C0.578716 0.600458 -1.5 3.36244 -1.5 6.99382H1.5Z" fill="#5F6D7C" mask="url(#path-1-inside-1)"/>
</svg>
