<svg width="30" height="30" viewBox="0 0 30 30" fill="none" xmlns="http://www.w3.org/2000/svg">
<path d="M15.3307 5.28092e-05C10.12 -0.0139007 5.53461 2.73842 2.91389 6.89655C2.79772 7.08144 2.92756 7.32562 3.14282 7.32562H5.54486C5.70887 7.32562 5.86263 7.25237 5.96513 7.1233C6.20431 6.82679 6.46058 6.54074 6.73051 6.26865C7.8444 5.13493 9.13939 4.24191 10.5813 3.62098C12.071 2.97912 13.6565 2.65121 15.2931 2.65121C16.9298 2.65121 18.5152 2.97563 20.005 3.62098C21.4469 4.24191 22.7419 5.13493 23.8557 6.26865C24.9696 7.40237 25.8409 8.72446 26.4526 10.1931C27.0847 11.714 27.4024 13.3291 27.4024 15C27.4024 16.671 27.0813 18.2861 26.4526 19.807C25.8444 21.2756 24.9696 22.5977 23.8557 23.7314C22.7419 24.8651 21.4469 25.7581 20.005 26.3791C18.514 27.022 16.9116 27.3518 15.2931 27.3488C13.6565 27.3488 12.071 27.0209 10.5813 26.3791C9.14222 25.7588 7.83451 24.8596 6.73051 23.7314C6.46058 23.4558 6.20773 23.1698 5.96513 22.8768C5.86263 22.7477 5.70545 22.6744 5.54486 22.6744H3.14282C2.92756 22.6744 2.7943 22.9186 2.91389 23.1035C5.53119 27.2512 10.0961 30 15.2931 30C23.3637 30 29.9172 23.3686 29.9992 15.1535C30.0812 6.80586 23.5175 0.020983 15.3307 5.28092e-05ZM11.0023 18.907V16.2558H0.273348C0.123007 16.2558 0 16.1303 0 15.9768V14.0233C0 13.8698 0.123007 13.7442 0.273348 13.7442H11.0023V11.0931C11.0023 10.8593 11.2688 10.7268 11.4464 10.8733L16.2949 14.7803C16.3276 14.8064 16.354 14.8397 16.3722 14.8778C16.3904 14.9159 16.3998 14.9577 16.3998 15C16.3998 15.0424 16.3904 15.0842 16.3722 15.1223C16.354 15.1603 16.3276 15.1937 16.2949 15.2198L11.4464 19.1268C11.2688 19.2698 11.0023 19.1407 11.0023 18.907Z" fill="#5F6D7C"/>
</svg>
