<svg width="38" height="26" viewBox="0 0 38 26" fill="none" xmlns="http://www.w3.org/2000/svg">
<path opacity="0.597" d="M36.384 4.00895C36.1749 3.23648 35.7671 2.53225 35.2011 1.96639C34.6351 1.40052 33.9307 0.99276 33.158 0.783714C30.2936 -1.47592e-07 18.8358 0 18.8358 0C18.8358 0 7.37812 -3.68981e-07 4.51369 0.754C3.74207 0.974496 3.04015 1.38971 2.4754 1.95974C1.91064 2.52977 1.50205 3.23545 1.28888 4.00895C0.769129 6.91364 0.516677 9.85983 0.534691 12.8106C0.515673 15.7614 0.768132 18.7076 1.28888 21.6122C1.49779 22.3849 1.90557 23.0894 2.47159 23.6555C3.03761 24.2216 3.74211 24.6295 4.51492 24.8387C7.40908 25.6224 18.8371 25.6224 18.8371 25.6224C18.8371 25.6224 30.2948 25.6224 33.1592 24.8684C33.9317 24.6594 34.6361 24.2519 35.202 23.6862C35.768 23.1206 36.176 22.4166 36.3853 21.6444C36.9049 18.7397 37.1574 15.7935 37.1395 12.8428C37.1736 9.88068 36.9207 6.92225 36.384 4.00895ZM15.1887 18.3015V7.32457L24.717 12.8106L15.1887 18.3015Z" fill="#5F6D7C"/>
</svg>
